<svg width="512" height="512" viewBox="0 0 512 512" fill="none" xmlns="http://www.w3.org/2000/svg">
<path fill-rule="evenodd" clip-rule="evenodd" d="M280.702 254.881C284.172 252.765 287.116 248.331 289.49 243.403C320.735 256.173 342.692 286.349 342.692 321.54C342.692 368.29 303.942 406.189 256.142 406.189C236.52 406.189 218.423 399.802 203.906 389.039C199.144 386.784 195.226 384.618 192.02 382.845C187.047 380.096 183.786 378.293 181.744 378.575C175.775 379.398 177.508 384.89 179.083 389.879C180.152 393.268 181.149 396.425 179.606 397.727C177.992 399.091 172.764 394.106 166.655 388.282C158.339 380.353 148.391 370.868 143.7 373.717C139.991 375.97 143.592 382.081 148 389.561L148.327 390.116C150.189 393.278 152.347 396.498 154.316 399.436C158.319 405.407 161.543 410.219 159.93 411.033C157.98 412.017 144.394 402.847 132.945 390.116C128.526 385.203 124.246 379.877 120.268 374.928L120.268 374.927C111.561 364.093 104.307 355.068 100.235 356.137C95.3365 357.423 99.0421 367.527 104.487 377.25C107.033 381.797 110.028 386.427 112.621 391.143C117.727 400.446 122.133 409.543 118.25 413.426C113.151 418.525 94.6393 404.245 82.5415 392.147C62.1926 371.798 48.847 348.041 41.3441 327.031C32.9411 303.718 31.1807 284.387 36.0586 279.509C42.4508 273.117 57.8124 286.161 69.6907 297.799C78.6621 306.603 85.7461 314.309 87.6582 313.766C90.1164 313.097 88.3716 303.91 85.8361 293.022C84.3802 287.014 82.7129 280.587 82.2014 274.81C81.1976 265.899 82.4312 259.477 86.8967 259.477C92.7834 259.477 100.983 272.546 107.818 284.825C113.126 294.709 117.429 303.482 119.933 306.986C125.917 317.006 137.717 322.961 151.63 330.539C189.858 350.31 246.566 380.297 280.702 254.881Z" fill="white"/>
</svg>