<svg width="512" height="512" viewBox="0 0 512 512" fill="none" xmlns="http://www.w3.org/2000/svg">
<path fill-rule="evenodd" clip-rule="evenodd" d="M352.258 395.394C358.584 372.263 346.305 324.71 346.305 324.71C346.305 324.71 337.399 363.449 323.483 377.767C311.611 389.98 297.066 398.451 276.206 400.677C293.261 392.393 304.99 375.12 304.99 355.155C304.99 327.129 281.878 304.409 253.368 304.409C224.858 304.409 201.745 327.129 201.745 355.155C201.745 362.809 203.47 370.068 206.557 376.576C188.725 362.37 185.921 339.594 185.921 339.594C185.921 339.594 166.009 422.264 220.875 461.152C275.74 500.04 383.219 466.614 383.219 466.614C383.219 466.614 229.41 574.837 115.436 457.05C17.2568 355.584 89.8111 222.003 89.8111 222.003C89.8111 222.003 86.6777 234.395 86.6777 248.78C86.6777 263.165 94.477 274.11 94.477 274.11C94.477 274.11 117.742 225.071 135.848 205.128C152.984 186.254 174.465 170.946 193.019 157.724C207.301 147.546 219.849 138.604 227.343 130.223C268.62 84.0687 243.311 0 243.311 0C243.311 0 258.676 33.2849 267.021 68.5816C275.367 103.878 278.513 131.758 278.513 131.758C278.513 131.758 289.873 139.781 302.208 151.894C322.455 171.956 348.312 201.708 352.258 395.394Z" fill="white"/>
</svg>